<svg width="24" height="25" viewBox="0 0 24 25" fill="none" xmlns="http://www.w3.org/2000/svg">
<path d="M17 2.5H7C4.23858 2.5 2 4.73858 2 7.5V17.5C2 20.2614 4.23858 22.5 7 22.5H17C19.7614 22.5 22 20.2614 22 17.5V7.5C22 4.73858 19.7614 2.5 17 2.5Z" stroke="#1B1B1B" stroke-width="2" stroke-linecap="round" stroke-linejoin="round"/>
<path d="M15.9997 11.8698C16.1231 12.7021 15.981 13.552 15.5935 14.2988C15.206 15.0456 14.5929 15.6512 13.8413 16.0295C13.0898 16.4077 12.2382 16.5394 11.4075 16.4057C10.5768 16.2721 9.80947 15.8799 9.21455 15.285C8.61962 14.6901 8.22744 13.9227 8.09377 13.092C7.96011 12.2614 8.09177 11.4097 8.47003 10.6582C8.84829 9.90667 9.45389 9.29355 10.2007 8.90605C10.9475 8.51856 11.7975 8.3764 12.6297 8.49981C13.4786 8.6257 14.2646 9.02128 14.8714 9.62812C15.4782 10.235 15.8738 11.0209 15.9997 11.8698Z" stroke="#1B1B1B" stroke-width="2" stroke-linecap="round" stroke-linejoin="round"/>
<path d="M17.5 7H17.51" stroke="#1B1B1B" stroke-width="2" stroke-linecap="round" stroke-linejoin="round"/>
</svg>
